<svg id="Layer_1" data-name="Layer 1" xmlns="http://www.w3.org/2000/svg" xmlns:xlink="http://www.w3.org/1999/xlink" viewBox="0 0 734.42 913.4"><defs><style>.cls-1{fill:url(#linear-gradient);}.cls-2{fill:url(#linear-gradient-2);}.cls-3{fill:url(#linear-gradient-3);}.cls-4{fill:url(#linear-gradient-4);}.cls-5{fill:url(#linear-gradient-5);}.cls-6{fill:url(#linear-gradient-6);}.cls-7{fill:url(#linear-gradient-7);}.cls-8{fill:url(#linear-gradient-8);}.cls-9{fill:url(#linear-gradient-9);}.cls-10{fill:url(#linear-gradient-10);}.cls-11{fill:url(#linear-gradient-11);}.cls-12{fill:url(#linear-gradient-12);}.cls-13{fill:url(#linear-gradient-13);}.cls-14{fill:url(#linear-gradient-14);}.cls-15{fill:url(#linear-gradient-15);}.cls-16{fill:url(#linear-gradient-16);}.cls-17{fill:url(#linear-gradient-17);}.cls-18{fill:url(#linear-gradient-18);}.cls-19{fill:url(#linear-gradient-19);}.cls-20{fill:url(#linear-gradient-20);}.cls-21{fill:url(#linear-gradient-21);}.cls-22{fill:url(#linear-gradient-22);}.cls-23{fill:url(#linear-gradient-23);}.cls-24{fill:url(#linear-gradient-24);}.cls-25{fill:url(#linear-gradient-25);}.cls-26{fill:url(#linear-gradient-26);}.cls-27{fill:url(#linear-gradient-27);}.cls-28{fill:url(#linear-gradient-28);}.cls-29{fill:url(#linear-gradient-29);}.cls-30{fill:url(#linear-gradient-30);}.cls-31{fill:url(#linear-gradient-31);}.cls-32{fill:url(#linear-gradient-32);}.cls-33{fill:url(#linear-gradient-33);}.cls-34{fill:url(#linear-gradient-34);}.cls-35{fill:url(#linear-gradient-35);}.cls-36{fill:url(#linear-gradient-36);}.cls-37{fill:url(#linear-gradient-37);}.cls-38{fill:url(#linear-gradient-38);}.cls-39{fill:url(#linear-gradient-39);}.cls-40{fill:url(#linear-gradient-40);}.cls-41{fill:url(#linear-gradient-41);}.cls-42{fill:url(#linear-gradient-42);}.cls-43{fill:url(#linear-gradient-43);}.cls-44{fill:url(#linear-gradient-44);}.cls-45{fill:url(#linear-gradient-45);}.cls-46{fill:url(#linear-gradient-46);}.cls-47{fill:url(#linear-gradient-47);}.cls-48{fill:url(#linear-gradient-48);}.cls-49{fill:url(#linear-gradient-49);}.cls-50{fill:url(#linear-gradient-50);}.cls-51{fill:none;clip-rule:evenodd;}.cls-52{clip-path:url(#clip-path);}.cls-53{fill:url(#linear-gradient-51);}.cls-54{mask:url(#mask);}.cls-55{fill:#01052d;}.cls-134,.cls-139,.cls-141,.cls-145,.cls-147,.cls-151,.cls-155,.cls-55,.cls-59,.cls-69,.cls-78,.cls-84,.cls-92{fill-rule:evenodd;}.cls-56{clip-path:url(#clip-path-2);}.cls-57{fill:url(#linear-gradient-52);}.cls-58{mask:url(#mask-2);}.cls-59{fill:#f6dcfd;}.cls-60{mask:url(#mask-3);}.cls-61{clip-path:url(#clip-path-3);}.cls-62{fill:url(#linear-gradient-53);}.cls-63{mask:url(#mask-4);}.cls-64{mask:url(#mask-5);}.cls-65{clip-path:url(#clip-path-4);}.cls-66{fill:url(#linear-gradient-54);}.cls-67{mask:url(#mask-6);}.cls-68{mask:url(#mask-7);}.cls-69{fill:#3e005d;}.cls-70{clip-path:url(#clip-path-5);}.cls-71{fill:url(#linear-gradient-55);}.cls-72{mask:url(#mask-8);}.cls-73{mask:url(#mask-9);}.cls-74{clip-path:url(#clip-path-6);}.cls-75{fill:url(#linear-gradient-56);}.cls-76{mask:url(#mask-10);}.cls-77{mask:url(#mask-11);}.cls-78{fill:#dcc6e0;}.cls-79{mask:url(#mask-12);}.cls-80{clip-path:url(#clip-path-7);}.cls-81{fill:url(#linear-gradient-57);}.cls-82{mask:url(#mask-13);}.cls-83{mask:url(#mask-14);}.cls-84{fill:#ffbcd8;}.cls-85{clip-path:url(#clip-path-8);}.cls-86{fill:url(#linear-gradient-58);}.cls-87{mask:url(#mask-15);}.cls-88{mask:url(#mask-16);}.cls-89{clip-path:url(#clip-path-9);}.cls-90{fill:url(#linear-gradient-59);}.cls-91{mask:url(#mask-17);}.cls-92{fill:#bfe6ed;}.cls-93{mask:url(#mask-18);}.cls-94{mask:url(#mask-19);}.cls-95{clip-path:url(#clip-path-10);}.cls-96{fill:url(#linear-gradient-60);}.cls-97{mask:url(#mask-20);}.cls-98{mask:url(#mask-21);}.cls-99{clip-path:url(#clip-path-11);}.cls-100{fill:url(#linear-gradient-61);}.cls-101{mask:url(#mask-22);}.cls-102{mask:url(#mask-23);}.cls-103{mask:url(#mask-25);}.cls-104{mask:url(#mask-26);}.cls-105{clip-path:url(#clip-path-12);}.cls-106{fill:url(#linear-gradient-62);}.cls-107{mask:url(#mask-27);}.cls-108{mask:url(#mask-28);}.cls-109{clip-path:url(#clip-path-13);}.cls-110{fill:url(#linear-gradient-63);}.cls-111{mask:url(#mask-29);}.cls-112{mask:url(#mask-30);}.cls-113{clip-path:url(#clip-path-14);}.cls-114{fill:url(#linear-gradient-64);}.cls-115{mask:url(#mask-31);}.cls-116{mask:url(#mask-32);}.cls-117{clip-path:url(#clip-path-15);}.cls-118{fill:url(#linear-gradient-65);}.cls-119{mask:url(#mask-33);}.cls-120{mask:url(#mask-34);}.cls-121{clip-path:url(#clip-path-16);}.cls-122{fill:url(#linear-gradient-66);}.cls-123{mask:url(#mask-35);}.cls-124{mask:url(#mask-36);}.cls-125{clip-path:url(#clip-path-17);}.cls-126{fill:url(#linear-gradient-67);}.cls-127{mask:url(#mask-37);}.cls-128{mask:url(#mask-38);}.cls-129{mask:url(#mask-39);}.cls-130{clip-path:url(#clip-path-18);}.cls-131{fill:url(#linear-gradient-68);}.cls-132{mask:url(#mask-40);}.cls-133{mask:url(#mask-41);}.cls-134{fill:#9a0038;}.cls-135{mask:url(#mask-42);}.cls-136{clip-path:url(#clip-path-19);}.cls-137{fill:url(#linear-gradient-69);}.cls-138{mask:url(#mask-43);}.cls-139{fill:#ffccbc;}.cls-140{mask:url(#mask-44);}.cls-141{fill:#8a0028;}.cls-142{clip-path:url(#clip-path-20);}.cls-143{fill:url(#linear-gradient-70);}.cls-144{mask:url(#mask-45);}.cls-145{fill:#f9fcba;}.cls-146{mask:url(#mask-46);}.cls-147{fill:#4b0301;}.cls-148{clip-path:url(#clip-path-21);}.cls-149{fill:url(#linear-gradient-71);}.cls-150{mask:url(#mask-47);}.cls-151{fill:#fdffcf;}.cls-152{mask:url(#mask-48);}.cls-153{mask:url(#mask-49);}.cls-154{mask:url(#mask-50);}.cls-155{fill:#ba1c58;}</style><linearGradient id="linear-gradient" x1="955.6" y1="998.11" x2="743.85" y2="1105.56" gradientTransform="translate(249.37 -285.72)" gradientUnits="userSpaceOnUse"><stop offset="0" stop-color="#fff"/><stop offset="1"/></linearGradient><linearGradient id="linear-gradient-2" x1="572.83" y1="1264.27" x2="787.96" y2="1070.61" gradientTransform="translate(236.42 -286.44)" xlink:href="#linear-gradient"/><linearGradient id="linear-gradient-3" x1="-439.84" y1="-494.72" x2="946.2" y2="1049.7" gradientTransform="translate(213.12 -319.79)" xlink:href="#linear-gradient"/><linearGradient id="linear-gradient-4" x1="1235.4" y1="1445.04" x2="741.31" y2="894.54" gradientTransform="translate(251.48 -279.28)" xlink:href="#linear-gradient"/><linearGradient id="linear-gradient-5" x1="1093.93" y1="753.29" x2="799.47" y2="1017.54" gradientTransform="translate(253.2 -279.28)" xlink:href="#linear-gradient"/><linearGradient id="linear-gradient-6" x1="853.27" y1="668.24" x2="830.69" y2="1086.2" gradientTransform="translate(253.2 -283.44)" xlink:href="#linear-gradient"/><linearGradient id="linear-gradient-7" x1="603.99" y1="1103.58" x2="799.49" y2="1299.08" gradientTransform="translate(225.06 -227.48)" xlink:href="#linear-gradient"/><linearGradient id="linear-gradient-8" x1="600.61" y1="1170.61" x2="857.15" y2="1319.32" gradientTransform="translate(226.57 -211.84)" xlink:href="#linear-gradient"/><linearGradient id="linear-gradient-9" x1="1254.65" y1="1182.49" x2="764.52" y2="1313.82" gradientTransform="translate(234.75 -192.03)" xlink:href="#linear-gradient"/><linearGradient id="linear-gradient-10" x1="656.85" y1="1178.2" x2="788.69" y2="1309.99" gradientTransform="translate(221.99 -224.52)" xlink:href="#linear-gradient"/><linearGradient id="linear-gradient-11" x1="556.79" y1="1071" x2="850.71" y2="1387.99" gradientTransform="translate(222.93 -192.03)" xlink:href="#linear-gradient"/><linearGradient id="linear-gradient-12" x1="697.01" y1="852.59" x2="887.26" y2="1182.09" gradientTransform="translate(250.05 -259.29)" xlink:href="#linear-gradient"/><linearGradient id="linear-gradient-13" x1="1068.75" y1="916.93" x2="730.09" y2="1088.81" gradientTransform="translate(236.42 -290.2)" xlink:href="#linear-gradient"/><linearGradient id="linear-gradient-14" x1="505.53" y1="1339.93" x2="924.03" y2="1098.3" gradientTransform="translate(215.7 -219.25)" xlink:href="#linear-gradient"/><linearGradient id="linear-gradient-15" x1="884.92" y1="914.19" x2="723.83" y2="1193.19" gradientTransform="translate(222.24 -259.28)" xlink:href="#linear-gradient"/><linearGradient id="linear-gradient-16" x1="-40.8" y1="1047.89" x2="791.7" y2="1270.98" gradientTransform="translate(225.77 -160.33)" xlink:href="#linear-gradient"/><linearGradient id="linear-gradient-17" x1="1026.16" y1="1361.31" x2="807.78" y2="1276.72" gradientTransform="translate(225.77 -160.33)" xlink:href="#linear-gradient"/><linearGradient id="linear-gradient-18" x1="770.32" y1="3259.26" x2="770.32" y2="995.97" gradientTransform="translate(215.59 -160.33)" xlink:href="#linear-gradient"/><linearGradient id="linear-gradient-19" x1="723.5" y1="936.44" x2="875.66" y2="1194.65" gradientTransform="translate(250.05 -264.71)" xlink:href="#linear-gradient"/><linearGradient id="linear-gradient-20" x1="782.96" y1="1176.09" x2="782.96" y2="1102.76" gradientTransform="translate(243.57 -277.64)" xlink:href="#linear-gradient"/><linearGradient id="linear-gradient-21" x1="770.63" y1="903.84" x2="770.63" y2="1174.09" gradientTransform="translate(237.97 -277.64)" xlink:href="#linear-gradient"/><linearGradient id="linear-gradient-22" x1="854.16" y1="1428.33" x2="768.41" y2="1110.24" gradientTransform="translate(230.55 -267.72)" xlink:href="#linear-gradient"/><linearGradient id="linear-gradient-23" x1="745.52" y1="748.09" x2="745.52" y2="1180.3" gradientTransform="translate(230.55 -267.72)" xlink:href="#linear-gradient"/><linearGradient id="linear-gradient-24" x1="307.59" y1="1477" x2="800.01" y2="1035.08" gradientTransform="translate(223.87 -292.06)" xlink:href="#linear-gradient"/><linearGradient id="linear-gradient-25" x1="913.17" y1="1817.05" x2="718.29" y2="1089.76" gradientTransform="translate(211.79 -260.67)" xlink:href="#linear-gradient"/><linearGradient id="linear-gradient-26" x1="808.91" y1="721.86" x2="679.75" y2="1203.86" gradientTransform="translate(211.79 -261.23)" xlink:href="#linear-gradient"/><linearGradient id="linear-gradient-27" x1="683.7" y1="1612.39" x2="683.7" y2="1106.1" gradientTransform="translate(187.72 -257.57)" xlink:href="#linear-gradient"/><linearGradient id="linear-gradient-28" x1="898.49" y1="710.73" x2="591.58" y2="1233.48" gradientTransform="translate(187.72 -259.62)" xlink:href="#linear-gradient"/><linearGradient id="linear-gradient-29" x1="645.61" y1="1964.96" x2="645.61" y2="1091.67" gradientTransform="translate(159.85 -260.21)" xlink:href="#linear-gradient"/><linearGradient id="linear-gradient-30" x1="1094" y1="635.16" x2="503.09" y2="1207.83" gradientTransform="translate(159.85 -265.75)" xlink:href="#linear-gradient"/><linearGradient id="linear-gradient-31" x1="606.27" y1="2121.29" x2="606.27" y2="1065.46" gradientTransform="translate(131.05 -269.55)" xlink:href="#linear-gradient"/><linearGradient id="linear-gradient-32" x1="-1410.68" y1="1585.2" x2="870.49" y2="973.99" gradientTransform="translate(131.05 -282.63)" xlink:href="#linear-gradient"/><linearGradient id="linear-gradient-33" x1="1423.32" y1="877.52" x2="610.19" y2="1095.4" gradientTransform="translate(195.3 -271.37)" xlink:href="#linear-gradient"/><linearGradient id="linear-gradient-34" x1="632.92" y1="636.03" x2="749.46" y2="1070.95" gradientTransform="translate(195.3 -274.83)" xlink:href="#linear-gradient"/><linearGradient id="linear-gradient-35" x1="1118.98" y1="965.62" x2="689.94" y2="1056.12" gradientTransform="translate(223.87 -298.17)" xlink:href="#linear-gradient"/><linearGradient id="linear-gradient-36" x1="721.84" y1="947.76" x2="874.01" y2="1205.97" gradientTransform="translate(249.64 -274.83)" xlink:href="#linear-gradient"/><linearGradient id="linear-gradient-37" x1="419.15" y1="856.81" x2="831.73" y2="1094.98" gradientTransform="translate(195.3 -287.23)" xlink:href="#linear-gradient"/><linearGradient id="linear-gradient-38" x1="958.8" y1="1508.17" x2="849.47" y2="1100.25" gradientTransform="translate(249.68 -263.15)" xlink:href="#linear-gradient"/><linearGradient id="linear-gradient-39" x1="201.64" y1="700.76" x2="954.68" y2="1135.51" gradientTransform="translate(249.68 -272.85)" xlink:href="#linear-gradient"/><linearGradient id="linear-gradient-40" x1="1565.52" y1="705.68" x2="853.73" y2="1116.64" gradientTransform="translate(249.68 -267.03)" xlink:href="#linear-gradient"/><linearGradient id="linear-gradient-41" x1="2155.94" y1="1436.29" x2="775.86" y2="1066.5" gradientTransform="translate(249.68 -267.01)" xlink:href="#linear-gradient"/><linearGradient id="linear-gradient-42" x1="1557.39" y1="918.57" x2="888.39" y2="1097.87" gradientTransform="translate(249.68 -267.01)" xlink:href="#linear-gradient"/><linearGradient id="linear-gradient-43" x1="1320.92" y1="975.86" x2="880.88" y2="1093.78" gradientTransform="translate(249.68 -267.01)" xlink:href="#linear-gradient"/><linearGradient id="linear-gradient-44" x1="680.33" y1="1285.13" x2="821.12" y2="955.13" gradientTransform="translate(215.08 -294.12)" xlink:href="#linear-gradient"/><linearGradient id="linear-gradient-45" x1="726.05" y1="1324.64" x2="866.84" y2="994.6" gradientTransform="translate(258.98 -295.38)" xlink:href="#linear-gradient"/><linearGradient id="linear-gradient-46" x1="371.02" y1="1206.1" x2="767.68" y2="1004.77" gradientTransform="translate(213.91 -300.82)" xlink:href="#linear-gradient"/><linearGradient id="linear-gradient-47" x1="1160.62" y1="1014.8" x2="628.96" y2="982.17" gradientTransform="translate(214.01 -308.72)" xlink:href="#linear-gradient"/><linearGradient id="linear-gradient-48" x1="72" y1="1292.99" x2="756.29" y2="945.7" gradientTransform="translate(207.82 -309.38)" xlink:href="#linear-gradient"/><linearGradient id="linear-gradient-49" x1="1296.74" y1="1114.17" x2="613.07" y2="878.88" gradientTransform="translate(209.75 -312.21)" xlink:href="#linear-gradient"/><linearGradient id="linear-gradient-50" x1="-72.07" y1="1297.63" x2="755.23" y2="877.8" gradientTransform="translate(207.48 -313.23)" xlink:href="#linear-gradient"/><clipPath id="clip-path" transform="translate(-546.05 -418.57)"><path class="cls-51" d="M1094.44,755.56,1039,806.69A42.29,42.29,0,0,0,1071.31,817c10.21-15.61,17.7-38.41,23.13-61.45"/></clipPath><linearGradient id="linear-gradient-51" x1="589.13" y1="416.07" x2="11.42" y2="11.86" gradientUnits="userSpaceOnUse"><stop offset="0" stop-color="#0463ef"/><stop offset="1" stop-color="#c835f8"/></linearGradient><mask id="mask" x="492.99" y="336.99" width="55.4" height="53.95" maskUnits="userSpaceOnUse"><g transform="translate(-546.05 -418.57)"><rect class="cls-1" x="1039.04" y="755.56" width="55.4" height="53.95"/></g></mask><clipPath id="clip-path-2" transform="translate(-546.05 -418.57)"><path class="cls-51" d="M1087.4,734,985.08,780.62c23,38.75,78.84,27.32,95.11,8.69l7-7.64c5.47-16.79,9.57-35.3,12.59-52.36-4.06,1.37-8.36,3-12.41,4.7"/></clipPath><linearGradient id="linear-gradient-52" x1="616.18" y1="439.57" x2="38.47" y2="35.37" xlink:href="#linear-gradient-51"/><mask id="mask-2" x="439.03" y="310.74" width="114.73" height="77.18" maskUnits="userSpaceOnUse"><g transform="translate(-546.05 -418.57)"><rect class="cls-2" x="985.08" y="729.31" width="114.73" height="77.18"/></g></mask><mask id="mask-3" x="439.03" y="310.74" width="114.73" height="61.51" maskUnits="userSpaceOnUse"><g transform="translate(-546.05 -418.57)"><rect class="cls-13" x="985.08" y="729.31" width="114.73" height="61.51"/></g></mask><clipPath id="clip-path-3" transform="translate(-546.05 -418.57)"><path class="cls-51" d="M1068.35,715.23,932.8,730.13c11.8,53.35,80.47,61.37,106.27,46.07l58-32.38c2.07-10,3.77-19.85,5.15-28.92a263.68,263.68,0,0,0-33.83.33"/></clipPath><linearGradient id="linear-gradient-53" x1="643.4" y1="454.55" x2="65.69" y2="50.3" xlink:href="#linear-gradient-51"/><mask id="mask-4" x="386.75" y="311.55" width="151.89" height="52.96" maskUnits="userSpaceOnUse"><g transform="translate(-546.05 -418.57)"><rect class="cls-24" x="932.8" y="730.13" width="151.89" height="52.96"/></g></mask><mask id="mask-5" x="386.75" y="295.93" width="169.49" height="43.12" maskUnits="userSpaceOnUse"><g transform="translate(-546.05 -418.57)"><rect class="cls-35" x="932.8" y="714.51" width="169.49" height="43.12"/></g></mask><clipPath id="clip-path-4" transform="translate(-546.05 -418.57)"><path class="cls-51" d="M1053.51,686.37,891.72,652.14c-6.63,65.94,69.44,101.21,104.95,93.36l103.83-20.12c1-5.77,1.83-11.34,2.58-16.58l-4.67-7.69s-23.44-9.74-44.9-14.74"/></clipPath><linearGradient id="linear-gradient-54" x1="685.4" y1="450.27" x2="107.69" y2="46.02" xlink:href="#linear-gradient-51"/><mask id="mask-6" x="345.27" y="233.57" width="198.65" height="94.44" maskUnits="userSpaceOnUse"><g transform="translate(-546.05 -418.57)"><rect class="cls-46" x="891.31" y="652.14" width="198.65" height="94.44"/></g></mask><mask id="mask-7" x="345.67" y="233.57" width="210.64" height="61.53" maskUnits="userSpaceOnUse"><g transform="translate(-546.05 -418.57)"><rect class="cls-47" x="891.72" y="652.14" width="210.64" height="61.53"/></g></mask><clipPath id="clip-path-5" transform="translate(-546.05 -418.57)"><path class="cls-51" d="M1047.37,647.5,874,546.73c-32.64,73.44,41.62,142.91,85.51,147.34L1100.55,712l-7-30.5s-23.32-20.11-46.13-34"/></clipPath><linearGradient id="linear-gradient-55" x1="733.96" y1="427.05" x2="156.26" y2="22.84" xlink:href="#linear-gradient-51"/><mask id="mask-8" x="319.86" y="128.16" width="225.94" height="164.16" maskUnits="userSpaceOnUse"><g transform="translate(-546.05 -418.57)"><rect class="cls-48" x="865.91" y="546.73" width="225.94" height="164.16"/></g></mask><mask id="mask-9" x="327.92" y="128.16" width="224.63" height="152.38" maskUnits="userSpaceOnUse"><g transform="translate(-546.05 -418.57)"><rect class="cls-49" x="873.96" y="546.73" width="224.63" height="152.38"/></g></mask><clipPath id="clip-path-6" transform="translate(-546.05 -418.57)"><path class="cls-51" d="M1055,600.39,893.46,418.57C828,490.8,887.23,599,936.11,620.72l155.73,74.14,3.44-37.81s-19.24-32-40.26-56.66"/></clipPath><linearGradient id="linear-gradient-56" x1="818.45" y1="420.04" x2="240.74" y2="15.79" xlink:href="#linear-gradient-51"/><mask id="mask-10" x="318.46" y="0" width="227.33" height="276.29" maskUnits="userSpaceOnUse"><g transform="translate(-546.05 -418.57)"><rect class="cls-50" x="864.51" y="418.57" width="227.33" height="276.29"/></g></mask><mask id="mask-11" x="341.95" y="0" width="207.28" height="248.97" maskUnits="userSpaceOnUse"><g transform="translate(-546.05 -418.57)"><rect class="cls-3" x="887.99" y="418.57" width="207.28" height="248.97"/></g></mask><mask id="mask-12" x="501.78" y="181.82" width="75" height="235.93" maskUnits="userSpaceOnUse"><g transform="translate(-546.05 -418.57)"><rect class="cls-4" x="1047.83" y="600.39" width="75" height="235.93"/></g></mask><clipPath id="clip-path-7" transform="translate(-546.05 -418.57)"><path class="cls-51" d="M1103,799.34c33-81.36,30-110.62-47.93-199,64.43,98.8,31.31,138.5,1.91,235.91q5.82.11,11.86-.23Z"/></clipPath><linearGradient id="linear-gradient-57" x1="549.18" y1="400.45" x2="550.22" y2="-29.63" gradientUnits="userSpaceOnUse"><stop offset="0" stop-color="#c835f8"/><stop offset="1" stop-color="#fb5086"/></linearGradient><mask id="mask-13" x="508.97" y="181.82" width="39.67" height="235.92" maskUnits="userSpaceOnUse"><g transform="translate(-546.05 -418.57)"><rect class="cls-5" x="1055.02" y="600.39" width="39.67" height="235.92"/></g></mask><mask id="mask-14" x="508.97" y="181.82" width="67.81" height="218.63" maskUnits="userSpaceOnUse"><g transform="translate(-546.05 -418.57)"><rect class="cls-6" x="1055.02" y="600.39" width="67.81" height="218.63"/></g></mask><clipPath id="clip-path-8" transform="translate(-546.05 -418.57)"><path class="cls-51" d="M1081.88,1117.31s8.44-63.63-50.55-86.61l-57.83-22.52c-37.26-15.76-12.2-68.39,4-95.58-14,10.81-33.16,29.09-53.09,58.63a149.78,149.78,0,0,0,11.88,31c25.76,49.88,91.5,107.59,145.6,115.12"/></clipPath><linearGradient id="linear-gradient-58" x1="488.93" y1="623.99" x2="641.98" y2="776.99" gradientUnits="userSpaceOnUse"><stop offset="0" stop-color="#114fee"/><stop offset="1" stop-color="#15b0f8"/></linearGradient><mask id="mask-15" x="391.69" y="583.24" width="84.4" height="50.33" maskUnits="userSpaceOnUse"><g transform="translate(-546.05 -418.57)"><rect class="cls-7" x="937.73" y="1001.82" width="84.4" height="50.33"/></g></mask><mask id="mask-16" x="398" y="597.03" width="137.83" height="101.71" maskUnits="userSpaceOnUse"><g transform="translate(-546.05 -418.57)"><rect class="cls-8" x="944.05" y="1015.6" width="137.83" height="101.71"/></g></mask><clipPath id="clip-path-9" transform="translate(-546.05 -418.57)"><path class="cls-51" d="M1058,1199.87s35.6-75.27-28.18-127l-62.53-50.69c-54.46-46.82,62.55-132.75,62.55-132.75a7.46,7.46,0,0,0,4.17-7.53,177.81,177.81,0,0,1-34.41,16.78s-38.16,15.45-78.46,77.44a197.54,197.54,0,0,0,2.54,23.93c12.09,71.8,70.47,169.11,134.32,199.81"/></clipPath><linearGradient id="linear-gradient-59" x1="453.47" y1="615.89" x2="606.6" y2="881.06" xlink:href="#linear-gradient-58"/><mask id="mask-17" x="432.09" y="612.4" width="89.78" height="168.9" maskUnits="userSpaceOnUse"><g transform="translate(-546.05 -418.57)"><rect class="cls-9" x="978.14" y="1030.98" width="89.78" height="168.9"/></g></mask><mask id="mask-18" x="378.91" y="584.19" width="67.74" height="61.76" maskUnits="userSpaceOnUse"><g transform="translate(-546.05 -418.57)"><rect class="cls-10" x="924.96" y="1002.76" width="67.74" height="61.76"/></g></mask><mask id="mask-19" x="382.85" y="600.58" width="129.18" height="180.73" maskUnits="userSpaceOnUse"><g transform="translate(-546.05 -418.57)"><rect class="cls-11" x="928.89" y="1019.15" width="129.18" height="180.73"/></g></mask><clipPath id="clip-path-10" transform="translate(-546.05 -418.57)"><path class="cls-51" d="M1159,889.88c-80.69,131.4-222.9,134.32-257.48,196.57C882.55,941,962.82,833,1049.08,798.28l87.06,25.35s21,34.58,22.9,66.25"/></clipPath><linearGradient id="linear-gradient-60" x1="377.13" y1="547.58" x2="1557.63" y2="259.88" xlink:href="#linear-gradient-58"/><mask id="mask-20" x="495.82" y="379.71" width="117.18" height="121.34" maskUnits="userSpaceOnUse"><g transform="translate(-546.05 -418.57)"><rect class="cls-12" x="1041.86" y="798.28" width="117.18" height="121.34"/></g></mask><mask id="mask-21" x="352.71" y="391.12" width="242.87" height="276.76" maskUnits="userSpaceOnUse"><g transform="translate(-546.05 -418.57)"><rect class="cls-14" x="898.76" y="809.69" width="242.87" height="276.76"/></g></mask><clipPath id="clip-path-11" transform="translate(-546.05 -418.57)"><path class="cls-51" d="M991.47,1332s85.25-86.36,22.45-188.22l-61.56-99.85c-52.31-90.62,150-152.41,150-152.41,25.81-4.06-5.34-63.62-5.63-79.34l-47.65-13.88C982.66,825,919.8,895.2,903.07,992.46c-18,104.57,15.4,266.52,88.4,339.52"/></clipPath><linearGradient id="linear-gradient-61" x1="361.11" y1="515.56" x2="687.28" y2="945.1" xlink:href="#linear-gradient-58"/><mask id="mask-22" x="379.96" y="384.39" width="123.97" height="116.69" maskUnits="userSpaceOnUse"><g transform="translate(-546.05 -418.57)"><rect class="cls-15" x="926" y="802.97" width="123.97" height="116.69"/></g></mask><mask id="mask-23" x="394.66" y="472.93" width="161.64" height="440.47" maskUnits="userSpaceOnUse"><g transform="translate(-546.05 -418.57)"><rect class="cls-16" x="940.71" y="891.5" width="161.64" height="440.47"/></g></mask><mask id="mask-25" x="352.23" y="379.71" width="175.26" height="533.69" maskUnits="userSpaceOnUse"><g transform="translate(-546.05 -418.57)"><rect class="cls-18" x="898.28" y="798.28" width="175.26" height="533.69"/></g></mask><mask id="mask-26" x="495.82" y="379.71" width="70.73" height="98.78" maskUnits="userSpaceOnUse"><g transform="translate(-546.05 -418.57)"><rect class="cls-19" x="1041.86" y="798.28" width="70.73" height="98.78"/></g></mask><clipPath id="clip-path-12" transform="translate(-546.05 -418.57)"><path class="cls-51" d="M991.54,760.61l23.35,82.55c13.78-5.56,22.38-15.77,27.09-27.44-10.58-18.4-29.86-37.75-50.44-55.11"/></clipPath><linearGradient id="linear-gradient-62" x1="582.84" y1="323.41" x2="-124.95" y2="701.5" xlink:href="#linear-gradient-51"/><mask id="mask-27" x="468.85" y="404.8" width="23.28" height="19.79" maskUnits="userSpaceOnUse"><g transform="translate(-546.05 -418.57)"><rect class="cls-20" x="1014.89" y="823.37" width="23.28" height="19.79"/></g></mask><mask id="mask-28" x="445.49" y="342.03" width="34.13" height="82.55" maskUnits="userSpaceOnUse"><g transform="translate(-546.05 -418.57)"><rect class="cls-21" x="991.54" y="760.61" width="34.13" height="82.55"/></g></mask><clipPath id="clip-path-13" transform="translate(-546.05 -418.57)"><path class="cls-51" d="M966.05,756.65l-5.41,127.84c51.17-3.38,68.34-65.94,57.81-92l-4.14-11.07c-14.22-14.2-30.89-27.89-46.65-39.75-.69,4.83-1.3,10-1.61,15"/></clipPath><linearGradient id="linear-gradient-63" x1="635.43" y1="294.77" x2="-72.32" y2="672.86" xlink:href="#linear-gradient-51"/><mask id="mask-29" x="414.6" y="323.06" width="60.76" height="142.86" maskUnits="userSpaceOnUse"><g transform="translate(-546.05 -418.57)"><rect class="cls-22" x="960.64" y="741.63" width="60.76" height="142.86"/></g></mask><mask id="mask-30" x="414.6" y="323.06" width="30.85" height="142.86" maskUnits="userSpaceOnUse"><g transform="translate(-546.05 -418.57)"><rect class="cls-23" x="960.64" y="741.63" width="30.85" height="142.86"/></g></mask><clipPath id="clip-path-14" transform="translate(-546.05 -418.57)"><path class="cls-51" d="M937.17,766.31,882.48,911.54C942.7,927.05,986.2,861.48,984,827.42l-3-75.49c-9.1-7.27-18.21-14-26.7-20.12a297.23,297.23,0,0,0-17.09,34.5"/></clipPath><linearGradient id="linear-gradient-64" x1="670.5" y1="260.1" x2="-37.25" y2="638.18" xlink:href="#linear-gradient-51"/><mask id="mask-31" x="336.43" y="349.43" width="101.57" height="145.87" maskUnits="userSpaceOnUse"><g transform="translate(-546.05 -418.57)"><rect class="cls-25" x="882.48" y="768" width="101.57" height="145.87"/></g></mask><mask id="mask-32" x="336.43" y="313.23" width="82.95" height="179.74" maskUnits="userSpaceOnUse"><g transform="translate(-546.05 -418.57)"><rect class="cls-26" x="882.48" y="731.81" width="82.95" height="179.74"/></g></mask><clipPath id="clip-path-15" transform="translate(-546.05 -418.57)"><path class="cls-51" d="M900.24,766.5,782.18,913.07c63.5,40.69,138.47-18.35,148.8-58.43l33-115.73c-5.35-4-10.55-7.7-15.49-11.15l-10.2.77s-22,18.78-38.09,38"/></clipPath><linearGradient id="linear-gradient-65" x1="701.73" y1="222.04" x2="-6.03" y2="600.12" xlink:href="#linear-gradient-51"/><mask id="mask-33" x="236.14" y="332.08" width="178.49" height="176.12" maskUnits="userSpaceOnUse"><g transform="translate(-546.05 -418.57)"><rect class="cls-27" x="782.18" y="750.65" width="178.49" height="176.12"/></g></mask><mask id="mask-34" x="236.14" y="309.96" width="170.93" height="189.72" maskUnits="userSpaceOnUse"><g transform="translate(-546.05 -418.57)"><rect class="cls-28" x="782.18" y="728.53" width="170.93" height="189.72"/></g></mask><clipPath id="clip-path-16" transform="translate(-546.05 -418.57)"><path class="cls-51" d="M857.63,752.72,666.06,876.81c57.72,70.94,166.47,31.36,193.57-10.9L950.48,732l-34.58-8.55s-32.42,13.3-58.27,29.3"/></clipPath><linearGradient id="linear-gradient-66" x1="731.37" y1="166.39" x2="23.62" y2="544.48" xlink:href="#linear-gradient-51"/><mask id="mask-35" x="120.02" y="321.66" width="278.81" height="175.56" maskUnits="userSpaceOnUse"><g transform="translate(-546.05 -418.57)"><rect class="cls-29" x="666.06" y="740.23" width="278.81" height="175.56"/></g></mask><mask id="mask-36" x="120.02" y="304.84" width="270.33" height="169.29" maskUnits="userSpaceOnUse"><g transform="translate(-546.05 -418.57)"><rect class="cls-30" x="666.06" y="723.42" width="270.33" height="169.29"/></g></mask><clipPath id="clip-path-17" transform="translate(-546.05 -418.57)"><path class="cls-51" d="M813.76,720.69,546.05,791c39.59,103.61,179.87,99.23,227.11,60.83L928.6,732,892,709s-42.39,3-78.24,11.67"/></clipPath><linearGradient id="linear-gradient-67" x1="744.85" y1="87.55" x2="37.06" y2="465.63" xlink:href="#linear-gradient-51"/><mask id="mask-37" x="0" y="313.41" width="382.55" height="144.88" maskUnits="userSpaceOnUse"><g transform="translate(-546.05 -418.57)"><rect class="cls-31" x="546.05" y="731.98" width="382.55" height="144.88"/></g></mask><mask id="mask-38" x="0" y="290.45" width="356.11" height="113.35" maskUnits="userSpaceOnUse"><g transform="translate(-546.05 -418.57)"><rect class="cls-32" x="546.05" y="709.02" width="356.11" height="113.35"/></g></mask><mask id="mask-39" x="267.72" y="284.38" width="266.43" height="166.33" maskUnits="userSpaceOnUse"><g transform="translate(-546.05 -418.57)"><rect class="cls-33" x="813.76" y="702.95" width="266.43" height="166.33"/></g></mask><clipPath id="clip-path-18" transform="translate(-546.05 -418.57)"><path class="cls-51" d="M1040.35,774.51c-65.58-75.36-96.82-87.4-226.59-53.82,141.45-15.37,159.06,46.28,256.12,134.2Z"/></clipPath><linearGradient id="linear-gradient-68" x1="565.17" y1="450.23" x2="227.09" y2="255.02" xlink:href="#linear-gradient-57"/><mask id="mask-40" x="267.72" y="296.82" width="256.11" height="139.5" maskUnits="userSpaceOnUse"><g transform="translate(-546.05 -418.57)"><rect class="cls-34" x="813.76" y="715.39" width="256.11" height="139.5"/></g></mask><mask id="mask-41" x="494.14" y="355.94" width="29.7" height="80.38" maskUnits="userSpaceOnUse"><g transform="translate(-546.05 -418.57)"><rect class="cls-36" x="1040.18" y="774.51" width="29.7" height="80.38"/></g></mask><mask id="mask-42" x="267.72" y="284.38" width="237.13" height="100.27" maskUnits="userSpaceOnUse"><g transform="translate(-546.05 -418.57)"><rect class="cls-37" x="813.76" y="702.95" width="237.13" height="100.27"/></g></mask><clipPath id="clip-path-19" transform="translate(-546.05 -418.57)"><path class="cls-51" d="M1216.51,851.83c-15.83-10.25-40,12.78-53.66,33-41.7,61.62-118-43-122.5-110.3,62.13,90.75,168.4,33.45,176.16,77.32"/></clipPath><linearGradient id="linear-gradient-69" x1="841.6" y1="372.44" x2="500.26" y2="463.9" gradientUnits="userSpaceOnUse"><stop offset="0" stop-color="#fcd253"/><stop offset="1" stop-color="#fb5086"/></linearGradient><mask id="mask-43" x="494.3" y="355.94" width="118.65" height="129.01" maskUnits="userSpaceOnUse"><g transform="translate(-546.05 -418.57)"><rect class="cls-38" x="1040.35" y="774.51" width="118.65" height="129.01"/></g></mask><mask id="mask-44" x="494.3" y="355.94" width="176.16" height="88.6" maskUnits="userSpaceOnUse"><g transform="translate(-546.05 -418.57)"><rect class="cls-39" x="1040.35" y="774.51" width="176.16" height="88.6"/></g></mask><clipPath id="clip-path-20" transform="translate(-546.05 -418.57)"><path class="cls-51" d="M1231.12,887.48c-11.11-102.8-106.91,38.7-190.77-113l93.1,8.82,92.76,24,19.65,47Z"/></clipPath><linearGradient id="linear-gradient-70" x1="790.39" y1="379.97" x2="449.06" y2="471.43" xlink:href="#linear-gradient-69"/><mask id="mask-45" x="494.3" y="355.94" width="190.77" height="112.86" maskUnits="userSpaceOnUse"><g transform="translate(-546.05 -418.57)"><rect class="cls-40" x="1040.35" y="774.51" width="190.77" height="112.86"/></g></mask><mask id="mask-46" x="494.3" y="355.94" width="205.51" height="112.97" maskUnits="userSpaceOnUse"><g transform="translate(-546.05 -418.57)"><rect class="cls-41" x="1040.35" y="774.51" width="205.51" height="112.97"/></g></mask><clipPath id="clip-path-21" transform="translate(-546.05 -418.57)"><path class="cls-51" d="M1231.12,887.48c49.35-41.82,23-142.08-67.86-129.71l-122.91,16.74s19.59,34.58,103.16,35.16,96.25,20.17,87.61,77.81"/></clipPath><linearGradient id="linear-gradient-71" x1="707.13" y1="373.01" x2="365.75" y2="464.47" xlink:href="#linear-gradient-69"/><mask id="mask-47" x="494.3" y="355.94" width="194.45" height="112.97" maskUnits="userSpaceOnUse"><g transform="translate(-546.05 -418.57)"><rect class="cls-42" x="1040.35" y="774.51" width="194.45" height="112.97"/></g></mask><mask id="mask-48" x="494.3" y="338.15" width="215.3" height="130.76" maskUnits="userSpaceOnUse"><g transform="translate(-546.05 -418.57)"><rect class="cls-43" x="1040.35" y="756.72" width="215.3" height="130.76"/></g></mask><mask id="mask-49" x="350.1" y="266.86" width="221.25" height="89.08" maskUnits="userSpaceOnUse"><g transform="translate(-546.05 -418.57)"><rect class="cls-44" x="896.15" y="685.43" width="221.25" height="89.08"/></g></mask><mask id="mask-50" x="533.03" y="339.92" width="38.33" height="10.74" maskUnits="userSpaceOnUse"><g transform="translate(-546.05 -418.57)"><rect class="cls-45" x="1079.07" y="758.5" width="38.33" height="10.74"/></g></mask></defs><g class="cls-52"><rect class="cls-53" x="492.99" y="336.99" width="55.4" height="62.39"/></g><g class="cls-54"><path class="cls-55" d="M1094.44,755.56,1039,806.69c13.54,9.25,31.35-6.52,44.36-14.22a288.6,288.6,0,0,0,11-36.91" transform="translate(-546.05 -418.57)"/></g><g class="cls-56"><rect class="cls-57" x="439.03" y="310.74" width="114.73" height="90.06"/></g><g class="cls-58"><path class="cls-59" d="M1099.62,730.39l.19-1.08-.82.28c.2.27.42.53.63.8M985.08,780.62c19.27,32.47,61.62,29.7,84.4,17a96.44,96.44,0,0,1-41,6C1011.63,802.24,994.33,794.4,985.08,780.62Z" transform="translate(-546.05 -418.57)"/></g><g class="cls-60"><path class="cls-55" d="M1087.4,734,985.08,780.62c22.52,20.44,52.58,6.36,73.81-9.07L1097,743.82c1-5,1.92-9.66,2.78-14.51-4.06,1.37-8.36,3-12.41,4.7" transform="translate(-546.05 -418.57)"/></g><g class="cls-61"><rect class="cls-62" x="386.75" y="295.54" width="169.38" height="77.39"/></g><g class="cls-63"><path class="cls-59" d="M932.8,730.13c11.8,53.35,80.47,61.37,106.27,46.07l45.62-25.48h0l-41.93,20.45c-10.3,5.75-16.68,8.48-29.66,9.2a91.64,91.64,0,0,1-31.65-3.94c-22.06-6.82-42.6-23.8-48.65-46.3" transform="translate(-546.05 -418.57)"/></g><g class="cls-64"><path class="cls-55" d="M1068.35,715.23,932.8,730.13c21.32,40.31,63.2,26.49,88.71,19.11l80.65-23.33c.43-2.57-.36-8.54,0-11a263.68,263.68,0,0,0-33.83.33" transform="translate(-546.05 -418.57)"/></g><g class="cls-65"><rect class="cls-66" x="339.04" y="233.57" width="217.99" height="101.2"/></g><g class="cls-67"><path class="cls-59" d="M891.72,652.14c-6.63,65.94,69.44,101.21,104.95,93.36L1090,727.42h0L998.5,742.51c-12,2.34-21.42,1.72-33.47-1.52a111.65,111.65,0,0,1-35.14-16.61c-23.15-16.45-40-43.55-38.17-72.24" transform="translate(-546.05 -418.57)"/></g><g class="cls-68"><path class="cls-69" d="M1053.51,686.37,891.72,652.14c7.39,60.14,65.59,55.53,111.3,58.09l99.34,3.44-3.95-12.56s-23.44-9.74-44.9-14.74" transform="translate(-546.05 -418.57)"/></g><g class="cls-70"><rect class="cls-71" x="295.28" y="128.16" width="259.23" height="165.27"/></g><g class="cls-72"><path class="cls-59" d="M874,546.73c-32.64,73.44,41.62,142.91,85.51,147.34l132.38,16.83h0L962,691.78c-14.51-1.84-25.25-6.35-37.57-14.44a135.76,135.76,0,0,1-34.33-32.6c-20.68-28.06-29.52-65.27-16.14-98" transform="translate(-546.05 -418.57)"/></g><g class="cls-73"><path class="cls-69" d="M1047.37,647.5,874,546.73c0,75.2,46.63,88.77,83.4,101.91l141.23,50.47-5.09-17.61s-23.32-20.11-46.13-34" transform="translate(-546.05 -418.57)"/></g><g class="cls-74"><rect class="cls-75" x="281.98" width="267.25" height="276.29"/></g><g class="cls-76"><path class="cls-59" d="M893.46,418.57C828,490.8,887.23,599,936.11,620.72l155.73,74.14L940.5,620c-16.65-8.23-27-16.59-38.85-31.49a165.31,165.31,0,0,1-27.27-50.74c-13.31-40.55-9.24-86.34,19.08-119.2" transform="translate(-546.05 -418.57)"/></g><g class="cls-77"><path class="cls-78" d="M1055,600.39,893.46,418.57c-22.22,49.59,28,118.23,65.8,146.8l135.06,102.18,1-10.5s-19.24-32-40.26-56.66" transform="translate(-546.05 -418.57)"/></g><g class="cls-79"><path class="cls-55" d="M1055,600.39c23.89,46.14,29.59,80.07,27.13,112.3-1.56,20.54-7.9,40.9-14.39,60.36-9.09,27.25-16.09,45.33-19.93,62.78a149.89,149.89,0,0,0,16,.44c11.56-15.34,25.38-28.73,39.16-36.93,33-81.36,30-110.62-47.93-199" transform="translate(-546.05 -418.57)"/></g><g class="cls-80"><rect class="cls-81" x="508.97" y="181.82" width="80.91" height="235.98"/></g><g class="cls-82"><path class="cls-59" d="M1055,600.39c64.43,98.8,31.31,138.5,1.91,235.91h.56c7.86-22.89,17.4-45.46,24.81-68.54,5.65-17.63,10.58-35.72,12-54.16a138.13,138.13,0,0,0-6.07-52.19,194,194,0,0,0-10.09-25.66A159.24,159.24,0,0,0,1055,600.39" transform="translate(-546.05 -418.57)"/></g><g class="cls-83"><path class="cls-84" d="M1103,799.34c33-81.36,30-110.62-47.93-199h0c33.46,40.5,55.5,79.69,52.9,119.45-2,31.08-16.78,64.52-24.41,94.36,0,0,.44,1.83,1.14,4.82Z" transform="translate(-546.05 -418.57)"/></g><g class="cls-85"><rect class="cls-86" x="378.35" y="494.02" width="165.92" height="204.72"/></g><g class="cls-87"><path class="cls-55" d="M1022.14,1027.12l-48.64-18.94a33.63,33.63,0,0,1-10-6.36c-7.44.66-16.22,1.73-25.74,3.1,8.5,15.67,20.82,32,35.37,47.23,19.72-9,36.89-18.14,49-25" transform="translate(-546.05 -418.57)"/></g><g class="cls-88"><path class="cls-55" d="M944.05,1015.6c29.56,46.31,88.53,94.85,137.83,101.71-6.83-29-30.89-44.48-38.86-49.08l-61.64-38.82-8.87-1.16Z" transform="translate(-546.05 -418.57)"/></g><g class="cls-89"><rect class="cls-90" x="366.8" y="463.33" width="180.77" height="317.97"/></g><g class="cls-91"><path class="cls-92" d="M1058,1199.87s35.6-75.27-28.18-127L978.14,1031q26.68,23.67,53.44,47.24c11.73,10.31,21.05,22.67,26.85,37.34,9.67,24.44,8.41,60.35-.42,84.31" transform="translate(-546.05 -418.57)"/></g><g class="cls-93"><path class="cls-55" d="M992.7,1042.78l-25.4-20.59c-6.9-5.94-11-12.5-13-19.43-8.79,1-18.78,2.41-29.32,4.1,3.73,18.29,10.26,38,18.95,57.66,17.64-6.87,34.36-14.54,48.79-21.74" transform="translate(-546.05 -418.57)"/></g><g class="cls-94"><path class="cls-55" d="M928.89,1023.06c19,68.23,71.88,149.28,129.12,176.81.57-9.51-1.86-53.24-31.51-83.82l-71.37-73.61s6.3-24.19-2.21-23.26-13,1.78-24,3.88" transform="translate(-546.05 -418.57)"/></g><g class="cls-95"><rect class="cls-96" x="336.51" y="379.71" width="276.48" height="288.17"/></g><g class="cls-97"><path class="cls-55" d="M1159,889.88a291.62,291.62,0,0,1-20.91,29.71c-36.3,1.28-62.62-27.91-78.83-62.06a208.83,208.83,0,0,1-17.44-56.16c2.4-1.08,4.81-2.12,7.22-3.09l87.06,25.35s21,34.58,22.9,66.25" transform="translate(-546.05 -418.57)"/></g><g class="cls-98"><path class="cls-55" d="M952.37,1043.91c-22.92,12.28-41.11,25.07-50.81,42.54a326.15,326.15,0,0,1-2.73-49.32,348.19,348.19,0,0,1,9.86-49.52c26.78-95,96.61-158.25,165.45-177.92l45.95,18.77c-1.35,15.66,26.74,39.76,20.67,74-61.4,14.34-227.87,52.92-188.4,141.49Z" transform="translate(-546.05 -418.57)"/></g><g class="cls-99"><rect class="cls-100" x="339.04" y="379.71" width="243.09" height="533.69"/></g><g class="cls-101"><path class="cls-55" d="M1038.43,803C993.92,824.13,952.08,864.71,926,919.66c18.4-4.52,33.8-16.29,45.15-30.43,19.94,2.74,43.68-19.47,52.52-43.06,14.26-6.09,23.85-21,26.31-27.73A128.52,128.52,0,0,0,1038.43,803" transform="translate(-546.05 -418.57)"/></g><g class="cls-102"><path class="cls-92" d="M991.47,1332s85.25-86.36,22.45-188.22l-61.56-99.85c-52.26-90.52,149.56-152.27,150-152.41-16.2,4.22-41,11.27-63.48,22a370.27,370.27,0,0,0-33.57,18.11c-25.75,15.76-57.78,40.55-63.62,72.09-3.16,17,1.7,31.22,10.4,45.34l59.33,96.23c13.34,21.64,21.62,45.36,22.63,70.87a141.35,141.35,0,0,1-6.24,46.82c-5.82,19.14-17.62,48.25-36.33,69" transform="translate(-546.05 -418.57)"/></g><g class="cls-102"><path class="cls-92" d="M991.47,1332s85.25-86.36,22.45-188.22l-61.56-99.85c-52.26-90.52,149.56-152.27,150-152.41-16.2,4.22-41,11.27-63.48,22a370.27,370.27,0,0,0-33.57,18.11c-25.75,15.76-57.78,40.55-63.62,72.09-3.16,17,1.7,31.22,10.4,45.34l59.33,96.23c13.34,21.64,21.62,45.36,22.63,70.87a141.35,141.35,0,0,1-6.24,46.82c-5.82,19.14-17.62,48.25-36.33,69" transform="translate(-546.05 -418.57)"/></g><g class="cls-103"><path class="cls-55" d="M1069.69,804.28l-20.61-6C982.66,825,919.8,895.2,903.07,992.46c-18,104.57,15.4,266.52,88.4,339.52,24.39-171.63-90.3-193.94-67.78-331.92,17.7-108.43,146.19-145.17,146.19-145.17,5.33-22.47,4.45-38.79-.19-50.61" transform="translate(-546.05 -418.57)"/></g><g class="cls-104"><path class="cls-55" d="M1086.07,897.06c10-3.64,16.29-5.56,16.29-5.56,25.81-4.06-5.33-63.62-5.63-79.34l-47.65-13.88-2.78,1.15-.92.39-1.44.63-2.08.92a208.83,208.83,0,0,0,17.44,56.16c7,14.8,16,28.67,26.77,39.53" transform="translate(-546.05 -418.57)"/></g><g class="cls-105"><rect class="cls-106" x="445.49" y="342.03" width="50.44" height="82.55"/></g><g class="cls-107"><path class="cls-92" d="M1037.93,823.77l.25-.4a2,2,0,0,0-.25.4m-23,19.39a47.37,47.37,0,0,0,22.51-18.54C1034.09,829.09,1019.5,840.92,1014.89,843.16Z" transform="translate(-546.05 -418.57)"/></g><g class="cls-108"><path class="cls-55" d="M991.54,760.61l23.35,82.55c16.36-9,9.54-35.17,8.42-52.34a327.9,327.9,0,0,0-31.77-30.21" transform="translate(-546.05 -418.57)"/></g><g class="cls-109"><rect class="cls-110" x="414.6" y="323.06" width="68.34" height="142.86"/></g><g class="cls-111"><path class="cls-59" d="M968.66,742.38l-1-.75-.14,1,1.14-.23m-8,142.11c42.89-2.83,61.89-47.24,60.71-76.91a109.58,109.58,0,0,1-15,44.79C996.26,868.68,979.39,882.21,960.64,884.49Z" transform="translate(-546.05 -418.57)"/></g><g class="cls-112"><path class="cls-55" d="M966.05,756.65l-5.41,127.84c32.35-12.33,33.54-50.08,28.81-79.58l-8.49-53c-4.55-3.64-8.82-6.93-13.3-10.3-.69,4.83-1.3,10-1.61,15" transform="translate(-546.05 -418.57)"/></g><g class="cls-113"><rect class="cls-114" x="336.43" y="313.23" width="103.73" height="195.24"/></g><g class="cls-115"><path class="cls-59" d="M882.48,911.54C942.7,927.05,986.2,861.48,984,827.42L981.6,768h0l-.84,53.08c.54,13.41,0,21.29-5.94,34.84A104.26,104.26,0,0,1,954.53,886c-18.29,18.87-46.09,31-72,25.52" transform="translate(-546.05 -418.57)"/></g><g class="cls-116"><path class="cls-55" d="M937.17,766.31,882.48,911.54c51.89-.88,59.44-50.5,65.08-80.17l17.87-93.88c-2.4-1.75-8.86-4-11.17-5.68a297.23,297.23,0,0,0-17.09,34.5" transform="translate(-546.05 -418.57)"/></g><g class="cls-117"><rect class="cls-118" x="236.14" y="309.18" width="181.84" height="226"/></g><g class="cls-119"><path class="cls-59" d="M782.18,913.07c63.5,40.69,138.47-18.35,148.8-58.43l29.69-104h0L928.88,851.24c-3.83,13.43-9.28,22.63-18.77,33.19a127,127,0,0,1-35,27.1c-28.62,15-64.8,18.16-93,1.54" transform="translate(-546.05 -418.57)"/></g><g class="cls-120"><path class="cls-69" d="M900.24,766.5,782.18,913.07c64.84,23.47,90.13-38,116.27-83l54.66-99-14.78-2.46s-22,18.78-38.09,38" transform="translate(-546.05 -418.57)"/></g><g class="cls-121"><rect class="cls-122" x="120.02" y="304.84" width="284.42" height="224.34"/></g><g class="cls-123"><path class="cls-59" d="M666.06,876.81c57.72,70.94,166.47,31.36,193.57-10.9l85.25-125.68L858.6,862.16c-9.34,13.78-19.45,22.35-34,30.7a154.79,154.79,0,0,1-50.76,18c-39.13,6.53-81.45-3.65-107.78-34.09" transform="translate(-546.05 -418.57)"/></g><g class="cls-124"><path class="cls-69" d="M857.63,752.72,666.06,876.81c76.33,38.7,114.1-1.61,146.37-32.16l124-117.33-20.49-3.9s-32.42,13.3-58.27,29.3" transform="translate(-546.05 -418.57)"/></g><g class="cls-125"><rect class="cls-126" y="290.45" width="382.55" height="185.6"/></g><g class="cls-127"><path class="cls-59" d="M546.05,791c39.59,103.61,179.87,99.23,227.11,60.83L928.6,732,774.69,847c-16.93,12.66-30.74,18.85-52,23.21a187.93,187.93,0,0,1-65.54,1.54c-48-7.37-92.38-35.08-111.13-80.75" transform="translate(-546.05 -418.57)"/></g><g class="cls-128"><path class="cls-78" d="M813.76,720.69,546.05,791c38.87,48.09,134.42,32.44,182.86,8.83L902.16,715.4,892,709s-42.39,3-78.24,11.67" transform="translate(-546.05 -418.57)"/></g><g class="cls-129"><path class="cls-55" d="M813.76,720.69c59.13-.49,96.5,11.21,127.94,30.3,20,12.17,37.44,29.09,53.84,45.69,36.7,37.15,52.39,56.84,84.65,72.6v0c-21.31-26.83-37.8-64.54-39.83-94.75-65.58-75.36-96.82-87.4-226.59-53.82" transform="translate(-546.05 -418.57)"/></g><g class="cls-130"><rect class="cls-131" x="267.72" y="268.53" width="256.11" height="167.78"/></g><g class="cls-132"><path class="cls-59" d="M813.76,720.69c141.45-15.37,159.06,46.28,256.12,134.2-25.27-23.64-47.45-51.17-72.21-75.68-15-14.81-30.79-29.13-48.79-40.06a157,157,0,0,0-56.08-20.72,220.74,220.74,0,0,0-31.24-3,181.08,181.08,0,0,0-47.8,5.23" transform="translate(-546.05 -418.57)"/></g><g class="cls-133"><path class="cls-134" d="M1051,837.17c6,5.77,12.26,11.68,18.93,17.72l-29.53-80.38c-1.11,19.79,3.51,42.46,10.6,62.66" transform="translate(-546.05 -418.57)"/></g><g class="cls-135"><path class="cls-84" d="M1040.35,774.51c-65.58-75.36-96.82-87.4-226.59-53.82h0c58.33-13.09,109.45-15.28,148.46,7.84,30.49,18.07,56.84,50.25,83.2,73.36l5.46,1.33Z" transform="translate(-546.05 -418.57)"/></g><g class="cls-136"><rect class="cls-137" x="494.3" y="355.94" width="176.16" height="171.92"/></g><g class="cls-138"><path class="cls-139" d="M1159,889.92c-42.36,50.24-114.24-50.11-118.64-115.41,2.74,18.29,14,45.9,21.76,61.07,8.78,17.07,20.69,34.57,34.89,47.6,7.7,7.05,17.88,14.34,28.66,16.65s24.44-1.19,33.33-9.91" transform="translate(-546.05 -418.57)"/></g><g class="cls-140"><path class="cls-141" d="M1216.51,851.83c-10-6.47-23.3.32-35.19,11.28-38.13-2.13-98.83,13.84-141-88.6,62.13,90.75,168.4,33.45,176.16,77.32" transform="translate(-546.05 -418.57)"/></g><g class="cls-142"><rect class="cls-143" x="494.3" y="355.94" width="205.51" height="151.67"/></g><g class="cls-144"><path class="cls-145" d="M1231,887.38c-11.1-102.71-106.82,38.67-190.6-112.87,11.69,20.21,32.09,43.72,51.42,56.86a90.14,90.14,0,0,0,46.7,15.71c14.23.83,27.72-1.2,41.76-2.8,10.73-1.22,23.72-2.48,33.68,2.51,11.27,5.64,18.42,21.31,17,40.59" transform="translate(-546.05 -418.57)"/></g><g class="cls-146"><path class="cls-147" d="M1067.73,814c-9.19-10.2-18.35-23.12-27.38-39.45l93.1,8.82,92.76,24,19.65,47-14.74,33.13c5.74-73.62-37.17-64.7-87.69-65.05-24-.16-52-.4-75.7-8.47" transform="translate(-546.05 -418.57)"/></g><g class="cls-148"><rect class="cls-149" x="494.3" y="326.83" width="240.12" height="142.07"/></g><g class="cls-150"><path class="cls-151" d="M1040.35,774.51s19.59,34.58,103.16,35.16,96.25,20.17,87.61,77.81c4-17.1,6.63-43.71-2.57-57-6.92-10-18-15.15-29.41-18.23a148.93,148.93,0,0,0-24.1-4.1c-10.45-1-21-1.37-31.51-1.44-21.4-.15-45.8-2.59-66.8-10.5-8.78-3.3-29.11-12-36.38-21.71" transform="translate(-546.05 -418.57)"/></g><g class="cls-152"><path class="cls-145" d="M1231.12,887.48c49.35-41.82,23-142.08-67.86-129.71l-122.91,16.74c36.64,12.53,86.44,9,119.26,7.76,81.11-3.1,93.11,51.53,71.51,105.21" transform="translate(-546.05 -418.57)"/></g><g class="cls-153"><path class="cls-55" d="M896.15,686.54c60-8.06,113.86,28.87,147.71,78l73.54-6c-.52,1.89-1.08,3.8-1.67,5.75l-75.38,10.26c-46.53-53.47-75.79-75.06-135.21-71.09a77.78,77.78,0,0,1-9-16.88" transform="translate(-546.05 -418.57)"/></g><g class="cls-154"><path class="cls-155" d="M1115.75,764.15l0-.09,0-.09,0-.09.51-1.72,0-.09.36-1.26,0-.09.43-1.51,0-.09,0-.09,0-.09.12-.44-35.86,3c-.79,2.56-1.62,5.16-2.47,7.79l36.66-5Z" transform="translate(-546.05 -418.57)"/></g></svg>